<svg xmlns="http://www.w3.org/2000/svg" width="53" height="50" viewBox="0 0 53 50" style="&#10;">
  <metadata><?xpacket begin="&#xFEFF;" id="W5M0MpCehiHzreSzNTczkc9d"?>
<x:xmpmeta xmlns:x="adobe:ns:meta/" x:xmptk="Adobe XMP Core 5.6-c138 79.159824, 2016/09/14-01:09:01        ">
   <rdf:RDF xmlns:rdf="http://www.w3.org/1999/02/22-rdf-syntax-ns#">
      <rdf:Description rdf:about=""/>
   </rdf:RDF>
</x:xmpmeta>                                                                                                      
<?xpacket end="w"?></metadata>
<defs>
    <style>
      .cls-1 {
        fill: #ff6600;
        fill-rule: evenodd;
      }
    </style>
  </defs>
  <path id="Shape_1_copy" data-name="Shape 1 copy" class="cls-1" d="M91.214,52.983a7.783,7.783,0,0,0-3.073.612,8.45,8.45,0,0,0-2.549,1.661,7.664,7.664,0,0,0-2.34,5.518V75.291a3.788,3.788,0,0,1-7.575,0v-14.5A13.921,13.921,0,0,1,76.831,54.9a15.3,15.3,0,0,1,3.324-4.832,15.976,15.976,0,0,1,4.963-3.279,15.433,15.433,0,0,1,6.1-1.219A3.707,3.707,0,1,1,91.214,52.983ZM73.5,46.53a7.554,7.554,0,1,1,7.718-7.552A7.651,7.651,0,0,1,73.5,46.53ZM69.926,54.9a13.9,13.9,0,0,1,1.154,5.874V75.291a3.788,3.788,0,0,1-7.574,0V60.775a7.663,7.663,0,0,0-2.34-5.518A8.454,8.454,0,0,0,58.618,53.6a7.863,7.863,0,0,0-3.074-.611l-5.961-.024V75.291a3.788,3.788,0,0,1-7.574,0V32.711a3.788,3.788,0,0,1,7.575,0V45.547l5.961,0.024a15.593,15.593,0,0,1,6.1,1.219A15.981,15.981,0,0,1,66.6,50.069,15.289,15.289,0,0,1,69.926,54.9Z" transform="translate(-42 -29)"/>
</svg>
